<?xml version="1.0" encoding="UTF-8" standalone="no"?>
<!-- Generator: Adobe Illustrator 19.0.0, SVG Export Plug-In . SVG Version: 6.00 Build 0)  -->

<svg
   xmlns:dc="http://purl.org/dc/elements/1.1/"
   xmlns:cc="http://creativecommons.org/ns#"
   xmlns:rdf="http://www.w3.org/1999/02/22-rdf-syntax-ns#"
   xmlns:svg="http://www.w3.org/2000/svg"
   xmlns="http://www.w3.org/2000/svg"
   xmlns:sodipodi="http://sodipodi.sourceforge.net/DTD/sodipodi-0.dtd"
   xmlns:inkscape="http://www.inkscape.org/namespaces/inkscape"
   version="1.1"
   id="Layer_1"
   x="0px"
   y="0px"
   viewBox="0 0 30 30"
   style="enable-background:new 0 0 30 30;"
   xml:space="preserve"
   sodipodi:docname="icon-reposition.svg"
   inkscape:version="0.92.2 5c3e80d, 2017-08-06"><metadata
     id="metadata27"><rdf:RDF><cc:Work
         rdf:about=""><dc:format>image/svg+xml</dc:format><dc:type
           rdf:resource="http://purl.org/dc/dcmitype/StillImage" /></cc:Work></rdf:RDF></metadata><defs
     id="defs25" /><sodipodi:namedview
     pagecolor="#ffffff"
     bordercolor="#666666"
     borderopacity="1"
     objecttolerance="10"
     gridtolerance="10"
     guidetolerance="10"
     inkscape:pageopacity="0"
     inkscape:pageshadow="2"
     inkscape:window-width="640"
     inkscape:window-height="480"
     id="namedview23"
     showgrid="false"
     inkscape:zoom="7.8666667"
     inkscape:cx="-7.8813559"
     inkscape:cy="15"
     inkscape:current-layer="Layer_1" /><g
     id="g20"
     style="fill:#ffffff"><path
       d="M9.3,0H3C1.4,0,0,1.4,0,3v6.3c0,0.3,0.2,0.5,0.5,0.5S1,9.6,1,9.3V3c0-1.1,0.9-2,2-2h6.3c0.3,0,0.5-0.2,0.5-0.5S9.6,0,9.3,0   z"
       id="path2"
       style="fill:#ffffff" /><path
       d="M27,0h-6.3c-0.3,0-0.5,0.2-0.5,0.5S20.4,1,20.7,1H27c1.1,0,2,0.9,2,2v6.3c0,0.3,0.2,0.5,0.5,0.5S30,9.6,30,9.3V3   C30,1.4,28.6,0,27,0z"
       id="path4"
       style="fill:#ffffff" /><path
       d="M9.3,29H3c-1.1,0-2-0.9-2-2v-6.3c0-0.3-0.2-0.5-0.5-0.5S0,20.4,0,20.7V27c0,1.7,1.4,3,3,3h6.3c0.3,0,0.5-0.2,0.5-0.5   S9.6,29,9.3,29z"
       id="path6"
       style="fill:#ffffff" /><path
       d="M29.5,20.2c-0.3,0-0.5,0.2-0.5,0.5V27c0,1.1-0.9,2-2,2h-6.3c-0.3,0-0.5,0.2-0.5,0.5s0.2,0.5,0.5,0.5H27c1.7,0,3-1.4,3-3   v-6.3C30,20.4,29.8,20.2,29.5,20.2z"
       id="path8"
       style="fill:#ffffff" /><path
       d="M16.5,12h-3c-0.8,0-1.5,0.7-1.5,1.5v3c0,0.8,0.7,1.5,1.5,1.5h3c0.8,0,1.5-0.7,1.5-1.5v-3C18,12.7,17.3,12,16.5,12z"
       id="path10"
       style="fill:#ffffff" /><path
       d="M26.5,18c0.8,0,1.5-0.7,1.5-1.5v-3c0-0.8-0.7-1.5-1.5-1.5h-3c-0.8,0-1.5,0.7-1.5,1.5v3c0,0.8,0.7,1.5,1.5,1.5H26.5z"
       id="path12"
       style="fill:#ffffff" /><path
       d="M6.5,18C7.3,18,8,17.3,8,16.5v-3C8,12.7,7.3,12,6.5,12h-3C2.7,12,2,12.7,2,13.5v3C2,17.3,2.7,18,3.5,18H6.5z"
       id="path14"
       style="fill:#ffffff" /><path
       d="M16.5,22h-3c-0.8,0-1.5,0.7-1.5,1.5v3c0,0.8,0.7,1.5,1.5,1.5h3c0.8,0,1.5-0.7,1.5-1.5v-3C18,22.7,17.3,22,16.5,22z"
       id="path16"
       style="fill:#ffffff" /><path
       d="M16.5,2h-3C12.7,2,12,2.7,12,3.5v3C12,7.3,12.7,8,13.5,8h3C17.3,8,18,7.3,18,6.5v-3C18,2.7,17.3,2,16.5,2z"
       id="path18"
       style="fill:#ffffff" /></g></svg>