<?xml version="1.0" encoding="UTF-8" standalone="no"?>
<!-- Generator: Adobe Illustrator 19.2.1, SVG Export Plug-In . SVG Version: 6.00 Build 0)  -->

<svg
   xmlns:dc="http://purl.org/dc/elements/1.1/"
   xmlns:cc="http://creativecommons.org/ns#"
   xmlns:rdf="http://www.w3.org/1999/02/22-rdf-syntax-ns#"
   xmlns:svg="http://www.w3.org/2000/svg"
   xmlns="http://www.w3.org/2000/svg"
   xmlns:sodipodi="http://sodipodi.sourceforge.net/DTD/sodipodi-0.dtd"
   xmlns:inkscape="http://www.inkscape.org/namespaces/inkscape"
   version="1.1"
   x="0px"
   y="0px"
   viewBox="0 0 24 24"
   style="enable-background:new 0 0 24 24;"
   xml:space="preserve"
   id="svg128"
   sodipodi:docname="icon-list-a.svg"
   inkscape:version="0.92.2 5c3e80d, 2017-08-06"><metadata
     id="metadata134"><rdf:RDF><cc:Work
         rdf:about=""><dc:format>image/svg+xml</dc:format><dc:type
           rdf:resource="http://purl.org/dc/dcmitype/StillImage" /></cc:Work></rdf:RDF></metadata><defs
     id="defs132" /><sodipodi:namedview
     pagecolor="#ffffff"
     bordercolor="#666666"
     borderopacity="1"
     objecttolerance="10"
     gridtolerance="10"
     guidetolerance="10"
     inkscape:pageopacity="0"
     inkscape:pageshadow="2"
     inkscape:window-width="640"
     inkscape:window-height="480"
     id="namedview130"
     showgrid="false"
     inkscape:zoom="4.9947917"
     inkscape:cx="27.627018"
     inkscape:cy="1.3595976"
     inkscape:current-layer="svg128" /><g
     id="Credit_Card" /><g
     id="Banknote" /><g
     id="Wallet" /><g
     id="Compass" /><g
     id="Camera_1" /><g
     id="Photo" /><g
     id="Picture" /><g
     id="Camera_2" /><g
     id="No_Camera" /><g
     id="Video" /><g
     id="Audio" /><g
     id="Microphone_1" /><g
     id="Microphone_2" /><g
     id="No_Microphone" /><g
     id="Shopping_Cart" /><g
     id="Add_Shopping_Cart" /><g
     id="Remove_Shopping_Cart" /><g
     id="Shopping_Basket" /><g
     id="Jing-Jang" /><g
     id="Leaf" /><g
     id="Glass" /><g
     id="Cup" /><g
     id="Mug" /><g
     id="Refresh" /><g
     id="Login" /><g
     id="Logout" /><g
     id="Flowchart" /><g
     id="Pin_1" /><g
     id="Pin_2" /><g
     id="User_1" /><g
     id="User_2" /><g
     id="Users" /><g
     id="Adjustments" /><g
     id="Type" /><g
     id="Format_Size" /><g
     id="Menu_1" /><g
     id="Other" /><g
     id="Flash" /><g
     id="No_Flash" /><g
     id="Switch_Button_1" /><g
     id="Switch_Button_2" /><g
     id="Cut" /><g
     id="Crop" /><g
     id="Sun" /><g
     id="USB" /><g
     id="Pie_Chart_1" /><g
     id="Pie_Chart_2" /><g
     id="Line_Chart" /><g
     id="Bar_Chart" /><g
     id="Target" /><g
     id="Flashlight" /><g
     id="USB_Device" /><g
     id="Eject" /><g
     id="Lightbulb" /><g
     id="Information" /><g
     id="Deactivate_Protection" /><g
     id="Active_Protection" /><g
     id="Bug" /><g
     id="Protection" /><g
     id="Phone" /><g
     id="List"
     style="fill:#ffffff"><g
       id="g86"
       style="fill:#ffffff"><g
         id="g64"
         style="fill:#ffffff"><path
           d="M23.5,6h-16C7.224,6,7,5.776,7,5.5S7.224,5,7.5,5h16C23.776,5,24,5.224,24,5.5S23.776,6,23.5,6z"
           id="path62"
           style="fill:#ffffff" /></g><g
         id="g68"
         style="fill:#ffffff"><path
           d="M23.5,13h-16C7.224,13,7,12.776,7,12.5S7.224,12,7.5,12h16c0.276,0,0.5,0.224,0.5,0.5S23.776,13,23.5,13z"
           id="path66"
           style="fill:#ffffff" /></g><g
         id="g72"
         style="fill:#ffffff"><path
           d="M23.5,20h-16C7.224,20,7,19.776,7,19.5S7.224,19,7.5,19h16c0.276,0,0.5,0.224,0.5,0.5S23.776,20,23.5,20z"
           id="path70"
           style="fill:#ffffff" /></g><g
         id="g76"
         style="fill:#ffffff"><path
           d="M2.5,22C1.122,22,0,20.879,0,19.5S1.122,17,2.5,17S5,18.121,5,19.5S3.878,22,2.5,22z M2.5,18C1.673,18,1,18.673,1,19.5     S1.673,21,2.5,21S4,20.327,4,19.5S3.327,18,2.5,18z"
           id="path74"
           style="fill:#ffffff" /></g><g
         id="g80"
         style="fill:#ffffff"><path
           d="M2.5,15C1.122,15,0,13.879,0,12.5S1.122,10,2.5,10S5,11.121,5,12.5S3.878,15,2.5,15z M2.5,11C1.673,11,1,11.673,1,12.5     S1.673,14,2.5,14S4,13.327,4,12.5S3.327,11,2.5,11z"
           id="path78"
           style="fill:#ffffff" /></g><g
         id="g84"
         style="fill:#ffffff"><path
           d="M2.5,8C1.122,8,0,6.879,0,5.5S1.122,3,2.5,3S5,4.121,5,5.5S3.878,8,2.5,8z M2.5,4C1.673,4,1,4.673,1,5.5S1.673,7,2.5,7     S4,6.327,4,5.5S3.327,4,2.5,4z"
           id="path82"
           style="fill:#ffffff" /></g></g></g><g
     id="Plugin_1" /><g
     id="Bookmarrk" /><g
     id="Handshake" /><g
     id="Minimize" /><g
     id="Maximize" /><g
     id="Diamond" /><g
     id="Stop" /><g
     id="Shuffle" /><g
     id="Undo" /><g
     id="Upgrade" /><g
     id="Coding" /><g
     id="Syncronizaion" /><g
     id="Radio" /><g
     id="Presentation" /><g
     id="Door" /><g
     id="Thumbs_Up" /><g
     id="Thumbs_Down" /><g
     id="Keyboard" /><g
     id="_x33_D_Cube" /><g
     id="Signal" /><g
     id="Dice" /><g
     id="Upload" /><g
     id="Download" /><g
     id="Plugin_2" /><g
     id="Shopping_Bag" /><g
     id="Lifebelt" /><g
     id="Glasses" /><g
     id="Parabolic_Antenna" /><g
     id="Loudspeaker" /><g
     id="Play" /><g
     id="Pause" /><g
     id="Signpost" /><g
     id="Bluetooth" /><g
     id="Present" /><g
     id="Ruler" /><g
     id="Connection" /><g
     id="Money" /><g
     id="Paper_Plane" /><g
     id="Wallet_2" /></svg>