<?xml version="1.0" encoding="UTF-8" standalone="no"?>
<!-- Generator: Adobe Illustrator 19.0.0, SVG Export Plug-In . SVG Version: 6.00 Build 0)  -->

<svg
   xmlns:dc="http://purl.org/dc/elements/1.1/"
   xmlns:cc="http://creativecommons.org/ns#"
   xmlns:rdf="http://www.w3.org/1999/02/22-rdf-syntax-ns#"
   xmlns:svg="http://www.w3.org/2000/svg"
   xmlns="http://www.w3.org/2000/svg"
   xmlns:sodipodi="http://sodipodi.sourceforge.net/DTD/sodipodi-0.dtd"
   xmlns:inkscape="http://www.inkscape.org/namespaces/inkscape"
   version="1.1"
   id="Layer_1"
   x="0px"
   y="0px"
   viewBox="0 0 24 24"
   style="enable-background:new 0 0 24 24;"
   xml:space="preserve"
   sodipodi:docname="icon-loading.svg"
   inkscape:version="0.92.2 5c3e80d, 2017-08-06"><metadata
     id="metadata13"><rdf:RDF><cc:Work
         rdf:about=""><dc:format>image/svg+xml</dc:format><dc:type
           rdf:resource="http://purl.org/dc/dcmitype/StillImage" /></cc:Work></rdf:RDF></metadata><defs
     id="defs11" /><sodipodi:namedview
     pagecolor="#ffffff"
     bordercolor="#666666"
     borderopacity="1"
     objecttolerance="10"
     gridtolerance="10"
     guidetolerance="10"
     inkscape:pageopacity="0"
     inkscape:pageshadow="2"
     inkscape:window-width="640"
     inkscape:window-height="480"
     id="namedview9"
     showgrid="false"
     inkscape:zoom="28.25"
     inkscape:cx="12"
     inkscape:cy="12"
     inkscape:current-layer="Layer_1" /><g
     id="g6"
     style="fill:#ffffff"><g
       id="g4"
       style="fill:#ffffff"><path
         d="M19,8.5C19,8.776,19.224,9,19.5,9h4C23.776,9,24,8.776,24,8.5V4.542c0-0.276-0.224-0.5-0.5-0.5S23,4.266,23,4.542v2.95    C20.335,2.59,16.548,0,12,0C5.383,0,0,5.383,0,12s5.383,12,12,12s12-5.383,12-12c0-0.276-0.224-0.5-0.5-0.5S23,11.724,23,12    c0,6.065-4.935,11-11,11S1,18.065,1,12S5.935,1,12,1c5.165,0,8.329,3.658,10.143,7H19.5C19.224,8,19,8.224,19,8.5z"
         id="path2"
         style="fill:#ffffff" /></g></g></svg>