<svg xmlns="http://www.w3.org/2000/svg" viewBox="0 0 24 24">
  <g fill="#fff">
    <path d="M23.5 6h-16a.5.5 0 0 1 0-1h16a.5.5 0 0 1 0 1zM23.5 13h-16a.5.5 0 0 1 0-1h16a.5.5 0 0 1 0 1zM23.5 20h-16a.5.5 0 0 1 0-1h16a.5.5 0 0 1 0 1zM2.5 22C1.122 22 0 20.879 0 19.5S1.122 17 2.5 17 5 18.121 5 19.5 3.878 22 2.5 22zm0-4c-.827 0-1.5.673-1.5 1.5S1.673 21 2.5 21 4 20.327 4 19.5 3.327 18 2.5 18zM2.5 15C1.122 15 0 13.879 0 12.5S1.122 10 2.5 10 5 11.121 5 12.5 3.878 15 2.5 15zm0-4c-.827 0-1.5.673-1.5 1.5S1.673 14 2.5 14 4 13.327 4 12.5 3.327 11 2.5 11zM2.5 8C1.122 8 0 6.879 0 5.5S1.122 3 2.5 3 5 4.121 5 5.5 3.878 8 2.5 8zm0-4C1.673 4 1 4.673 1 5.5S1.673 7 2.5 7 4 6.327 4 5.5 3.327 4 2.5 4z"/>
  </g>
</svg>
