<svg xmlns="http://www.w3.org/2000/svg" viewBox="0 0 30 30">
  <path d="M17.352 22.627l-9.026 3.814.255-8.263-4.64-4.83 6.42-2.416 5.275-6.928z" fill="#fd5" stroke="#000"/>
  <path d="M29.471 11.49a.5.5 0 0 0-.403-.331L19.783 9.87 15.451.773c-.166-.349-.736-.349-.902 0L10.217 9.87.932 11.159a.496.496 0 0 0-.403.331.497.497 0 0 0 .11.51l6.822 7.147L5.6 28.894a.5.5 0 0 0 .723.537L15 24.886l8.677 4.545a.503.503 0 0 0 .53-.042.5.5 0 0 0 .193-.495l-1.861-9.747L29.361 12a.501.501 0 0 0 .11-.51zm-13.977 9.498h-.002a.5.5 0 0 1-.243.429l-5 3a.493.493 0 0 1-.538-.016.5.5 0 0 1-.212-.495l.958-5.747-4.318-4.318a.499.499 0 0 1 .264-.845l5.255-.956 2.888-5.776a.5.5 0 1 1 .948.224v14.5z" fill="#a80"/>
</svg>
