<svg xmlns="http://www.w3.org/2000/svg" viewBox="0 0 30 30">
  <g fill="#fff">
    <path d="M9.3 0H3C1.4 0 0 1.4 0 3v6.3c0 .3.2.5.5.5s.5-.2.5-.5V3c0-1.1.9-2 2-2h6.3c.3 0 .5-.2.5-.5S9.6 0 9.3 0zM27 0h-6.3c-.3 0-.5.2-.5.5s.2.5.5.5H27c1.1 0 2 .9 2 2v6.3c0 .3.2.5.5.5s.5-.2.5-.5V3c0-1.6-1.4-3-3-3zM9.3 29H3c-1.1 0-2-.9-2-2v-6.3c0-.3-.2-.5-.5-.5s-.5.2-.5.5V27c0 1.7 1.4 3 3 3h6.3c.3 0 .5-.2.5-.5s-.2-.5-.5-.5zM29.5 20.2c-.3 0-.5.2-.5.5V27c0 1.1-.9 2-2 2h-6.3c-.3 0-.5.2-.5.5s.2.5.5.5H27c1.7 0 3-1.4 3-3v-6.3c0-.3-.2-.5-.5-.5zM16.5 12h-3c-.8 0-1.5.7-1.5 1.5v3c0 .8.7 1.5 1.5 1.5h3c.8 0 1.5-.7 1.5-1.5v-3c0-.8-.7-1.5-1.5-1.5zM26.5 18c.8 0 1.5-.7 1.5-1.5v-3c0-.8-.7-1.5-1.5-1.5h-3c-.8 0-1.5.7-1.5 1.5v3c0 .8.7 1.5 1.5 1.5h3zM6.5 18c.8 0 1.5-.7 1.5-1.5v-3c0-.8-.7-1.5-1.5-1.5h-3c-.8 0-1.5.7-1.5 1.5v3c0 .8.7 1.5 1.5 1.5h3zM16.5 22h-3c-.8 0-1.5.7-1.5 1.5v3c0 .8.7 1.5 1.5 1.5h3c.8 0 1.5-.7 1.5-1.5v-3c0-.8-.7-1.5-1.5-1.5zM16.5 2h-3c-.8 0-1.5.7-1.5 1.5v3c0 .8.7 1.5 1.5 1.5h3c.8 0 1.5-.7 1.5-1.5v-3c0-.8-.7-1.5-1.5-1.5z"/>
  </g>
</svg>
