<svg xmlns="http://www.w3.org/2000/svg" viewBox="0 0 30 30">
  <g fill="#fff">
    <path d="M15 24C7.286 24 .401 15.671.112 15.316a.504.504 0 0 1 0-.633C.401 14.329 7.286 6 15 6c8.99 0 14.678 8.366 14.916 8.723a.502.502 0 0 1-.028.594C29.599 15.671 22.714 24 15 24zM1.159 15C2.497 16.521 8.58 23 15 23c6.466 0 12.578-6.559 13.865-8.027C27.755 13.478 22.511 7 15 7 8.573 7 2.497 13.479 1.159 15z"/>
    <path d="M15 20c-2.757 0-5-2.243-5-5s2.243-5 5-5 5 2.243 5 5-2.243 5-5 5zm0-9c-2.206 0-4 1.794-4 4s1.794 4 4 4 4-1.794 4-4-1.794-4-4-4z"/>
  </g>
</svg>
