<svg xmlns="http://www.w3.org/2000/svg" viewBox="0 0 24 24">
  <path d="M18.97 14c-.814 0-1.533-.27-2.022-.76l-6.119-6.119c-.559-.558-.862-1.266-.832-1.944.053-1.234-.464-2.412-1.58-3.603C7.479.574 6.23 0 4.94 0h-.001a4.951 4.951 0 0 0-3.065 1.123.5.5 0 0 0 .057.818l3.056 1.833a2.717 2.717 0 0 1-1.465 2.155L.785 4.288a.54.54 0 0 0-.517 0 .501.501 0 0 0-.26.41 4.958 4.958 0 0 0 1.353 3.731A5.024 5.024 0 0 0 5 10c.362 0 .738-.049 1.143-.151l7.025 7.027c.561.56.865 1.27.835 1.949-.052 1.226.458 2.396 1.558 3.577.946 1.015 2.201 1.598 3.44 1.598h.009a4.962 4.962 0 0 0 2.882-.932.5.5 0 0 0-.033-.836l-3.345-2.007a2.72 2.72 0 0 1 1.465-2.155l3.208 1.924a.498.498 0 0 0 .753-.367l.017-.122c.022-.166.043-.332.043-.505 0-2.757-2.243-5-5.03-5zm.031 9.499z" fill="#fff"/>
</svg>
