<?xml version="1.0" encoding="iso-8859-1"?>
<!-- Generator: Adobe Illustrator 19.2.1, SVG Export Plug-In . SVG Version: 6.00 Build 0)  -->
<svg version="1.1" xmlns="http://www.w3.org/2000/svg" xmlns:xlink="http://www.w3.org/1999/xlink" x="0px" y="0px"
	 viewBox="0 0 24 24" style="enable-background:new 0 0 24 24;" xml:space="preserve">
<g id="Mail">
</g>
<g id="Open_Mail">
</g>
<g id="Mail_Attachmet">
</g>
<g id="Mails">
</g>
<g id="Trash">
</g>
<g id="Trash_Full">
</g>
<g id="Preferences_1">
</g>
<g id="Preferences_2">
</g>
<g id="Mouse">
</g>
<g id="Computer">
</g>
<g id="Notebook">
</g>
<g id="Mobile_Phone">
</g>
<g id="Print">
</g>
<g id="Calculator">
</g>
<g id="Tag">
</g>
<g id="Paperclip">
</g>
<g id="Heart">
</g>
<g id="Lock">
</g>
<g id="Lock_Open">
</g>
<g id="Key_1">
</g>
<g id="Star">
</g>
<g id="Add">
</g>
<g id="Remove">
</g>
<g id="Error">
</g>
<g id="Check_1">
</g>
<g id="Time">
</g>
<g id="Question_Mark">
	<g>
		<path d="M11.5,0C5.159,0,0,5.159,0,11.5S5.159,23,11.5,23S23,17.841,23,11.5S17.841,0,11.5,0z M11.5,19c-0.551,0-1-0.448-1-1
			s0.449-1,1-1s1,0.448,1,1S12.051,19,11.5,19z M15,9.258c0,0.922-0.374,1.823-1.025,2.475l-1.242,1.242
			C12.267,13.439,12,14.084,12,14.742V15.5c0,0.276-0.224,0.5-0.5,0.5S11,15.776,11,15.5v-0.758c0-0.922,0.374-1.823,1.025-2.475
			l1.242-1.242C13.733,10.561,14,9.916,14,9.258V8.5C14,7.121,12.878,6,11.5,6S9,7.121,9,8.5v1C9,9.776,8.776,10,8.5,10
			S8,9.776,8,9.5v-1C8,6.57,9.57,5,11.5,5S15,6.57,15,8.5V9.258z"/>
		<polygon points="11.5,18 12,18 11.5,17.999 		"/>
	</g>
</g>
<g id="Error_Mark">
</g>
<g id="Sand-Glass">
</g>
<g id="Battery_Full">
</g>
<g id="Battery_Charge">
</g>
<g id="Battery_Half">
</g>
<g id="Battery_Low">
</g>
<g id="No_Battery">
</g>
<g id="Key_2">
</g>
<g id="Link">
</g>
<g id="Brake_Link">
</g>
<g id="Pencil">
</g>
<g id="At">
</g>
<g id="Reply">
</g>
<g id="Accessible">
</g>
<g id="Up_Arrow">
</g>
<g id="Brush">
</g>
<g id="Design_Mug">
</g>
<g id="Design">
</g>
<g id="Server">
</g>
<g id="Database">
</g>
<g id="Save">
</g>
<g id="Female">
</g>
<g id="Male">
</g>
<g id="Book">
</g>
<g id="Power">
</g>
<g id="Reload">
</g>
<g id="Map">
</g>
<g id="Loction_1">
</g>
<g id="Location_2">
</g>
<g id="Globe">
</g>
<g id="Suitcase">
</g>
<g id="Callendar">
</g>
<g id="Cloud_Off">
</g>
<g id="File_1">
</g>
<g id="File_2">
</g>
<g id="Folder">
</g>
<g id="Open_Folder">
</g>
<g id="Cloud">
</g>
<g id="Upload_Cloud">
</g>
<g id="Download_Cloud">
</g>
<g id="Eye">
</g>
<g id="Invisible">
</g>
<g id="Assignment">
</g>
<g id="Note_Book">
</g>
<g id="Webpage">
</g>
<g id="Mailbox">
</g>
<g id="Drive">
</g>
<g id="Disc">
</g>
<g id="Wifi_1">
</g>
<g id="Wifi_2">
</g>
<g id="Archive">
</g>
<g id="Archive_File">
</g>
<g id="News">
</g>
<g id="Home">
</g>
<g id="Collaboration">
</g>
<g id="Announcement">
</g>
<g id="Watch">
</g>
<g id="Clock">
</g>
<g id="Volume">
</g>
<g id="Mute">
</g>
<g id="Hand">
</g>
<g id="Layers">
</g>
<g id="Bell">
</g>
<g id="Speach_Bubble">
</g>
<g id="Speach_Bubbles">
</g>
<g id="Zoom_In">
</g>
<g id="Zoom_Out">
</g>
<g id="Search">
</g>
<g id="Back_Arrow">
</g>
<g id="Close">
</g>
<g id="Check_2">
</g>
<g id="Left_Arrow_2">
</g>
<g id="Right_Arrow_2">
</g>
</svg>
