<svg xmlns="http://www.w3.org/2000/svg" viewBox="0 0 24 24">
  <path d="M6.354 6.854L11.5 1.708V18.5a.5.5 0 0 0 1 0V1.708l5.146 5.146a.502.502 0 0 0 .708 0 .5.5 0 0 0 0-.707l-6-6a.499.499 0 0 0-.163-.108c-.035-.014-.073-.016-.109-.022C12.054.012 12.029 0 12 0c-.038 0-.072.014-.108.022-.027.006-.055.006-.081.016a.514.514 0 0 0-.167.111L5.647 6.147a.5.5 0 0 0 .707.707zM23 18a.5.5 0 0 0-.5.5V23h-21v-4.5a.5.5 0 0 0-1 0v5a.5.5 0 0 0 .5.5h22a.5.5 0 0 0 .5-.5v-5a.5.5 0 0 0-.5-.5z" fill="#fff"/>
</svg>
