<svg xmlns="http://www.w3.org/2000/svg" viewBox="0 0 24 24">
  <path d="M11.5 0C5.159 0 0 5.159 0 11.5S5.159 23 11.5 23 23 17.841 23 11.5 17.841 0 11.5 0zm0 19a1.001 1.001 0 0 1 0-2 1.001 1.001 0 0 1 0 2zM15 9.258c0 .922-.374 1.823-1.025 2.475l-1.242 1.242A2.511 2.511 0 0 0 12 14.742v.758a.5.5 0 0 1-1 0v-.758c0-.922.374-1.823 1.025-2.475l1.242-1.242A2.511 2.511 0 0 0 14 9.258V8.5C14 7.121 12.878 6 11.5 6S9 7.121 9 8.5v1a.5.5 0 0 1-1 0v-1C8 6.57 9.57 5 11.5 5S15 6.57 15 8.5v.758z" fill="#fff"/>
  <path d="M11.5 18h.5l-.5-.001z"/>
</svg>
