<?xml version="1.0" encoding="UTF-8" standalone="no"?>
<!-- Generator: Adobe Illustrator 19.0.0, SVG Export Plug-In . SVG Version: 6.00 Build 0)  -->

<svg
   xmlns:dc="http://purl.org/dc/elements/1.1/"
   xmlns:cc="http://creativecommons.org/ns#"
   xmlns:rdf="http://www.w3.org/1999/02/22-rdf-syntax-ns#"
   xmlns:svg="http://www.w3.org/2000/svg"
   xmlns="http://www.w3.org/2000/svg"
   xmlns:sodipodi="http://sodipodi.sourceforge.net/DTD/sodipodi-0.dtd"
   xmlns:inkscape="http://www.inkscape.org/namespaces/inkscape"
   version="1.1"
   id="Layer_1"
   x="0px"
   y="0px"
   viewBox="0 0 24 24"
   style="enable-background:new 0 0 24 24;"
   xml:space="preserve"
   sodipodi:docname="icon-settings.svg"
   inkscape:version="0.92.2 5c3e80d, 2017-08-06"><metadata
     id="metadata75"><rdf:RDF><cc:Work
         rdf:about=""><dc:format>image/svg+xml</dc:format><dc:type
           rdf:resource="http://purl.org/dc/dcmitype/StillImage" /></cc:Work></rdf:RDF></metadata><defs
     id="defs73" /><sodipodi:namedview
     pagecolor="#ffffff"
     bordercolor="#666666"
     borderopacity="1"
     objecttolerance="10"
     gridtolerance="10"
     guidetolerance="10"
     inkscape:pageopacity="0"
     inkscape:pageshadow="2"
     inkscape:window-width="640"
     inkscape:window-height="480"
     id="namedview71"
     showgrid="false"
     inkscape:zoom="6.9532165"
     inkscape:cx="74.333584"
     inkscape:cy="-17.798401"
     inkscape:current-layer="g38" /><g
     id="g38"><g
       id="g18"
       transform="matrix(2.0849774,0,0,2.0849774,-26.530382,-21.463122)"
       style="fill:#ffffff"><g
         id="g16"
         style="fill:#ffffff"><g
           id="g14"
           style="fill:#ffffff"><g
             id="g8"
             style="fill:#ffffff"><g
               id="g6"
               style="fill:#ffffff"><g
                 id="g4"
                 style="fill:#ffffff"><path
                   d="m 19.46,21.451 c -0.106,0 -0.21,-0.034 -0.297,-0.098 -0.113,-0.083 -0.186,-0.211 -0.201,-0.351 -0.026,-0.258 -0.234,-0.453 -0.482,-0.453 -0.248,0 -0.456,0.194 -0.482,0.453 -0.015,0.14 -0.087,0.268 -0.201,0.351 -0.114,0.083 -0.258,0.116 -0.395,0.088 -1.172,-0.233 -2.223,-0.847 -3.039,-1.774 -0.092,-0.104 -0.136,-0.243 -0.122,-0.381 0.014,-0.139 0.085,-0.265 0.197,-0.349 0.207,-0.156 0.268,-0.424 0.145,-0.638 -0.123,-0.213 -0.386,-0.294 -0.624,-0.194 -0.128,0.054 -0.273,0.053 -0.4,-0.004 -0.127,-0.057 -0.224,-0.164 -0.269,-0.295 -0.209,-0.616 -0.311,-1.191 -0.311,-1.756 0,-0.565 0.102,-1.14 0.311,-1.756 0.045,-0.132 0.142,-0.239 0.269,-0.295 0.126,-0.058 0.271,-0.059 0.4,-0.004 0.237,0.102 0.5,0.02 0.624,-0.194 0.124,-0.214 0.063,-0.482 -0.145,-0.638 -0.111,-0.083 -0.183,-0.21 -0.197,-0.349 -0.014,-0.138 0.03,-0.276 0.122,-0.381 0.816,-0.928 1.867,-1.542 3.039,-1.774 0.137,-0.029 0.282,0.004 0.395,0.088 0.113,0.083 0.186,0.211 0.201,0.351 0.026,0.258 0.234,0.453 0.482,0.453 0.248,0 0.456,-0.194 0.482,-0.453 0.015,-0.14 0.087,-0.268 0.201,-0.351 0.113,-0.084 0.257,-0.118 0.395,-0.088 1.172,0.233 2.223,0.847 3.039,1.774 0.092,0.104 0.136,0.243 0.122,0.381 -0.014,0.139 -0.085,0.265 -0.197,0.349 -0.207,0.156 -0.268,0.424 -0.145,0.638 0.124,0.214 0.389,0.295 0.624,0.194 0.128,-0.054 0.273,-0.053 0.4,0.004 0.127,0.057 0.224,0.164 0.269,0.295 0.209,0.616 0.311,1.191 0.311,1.756 0,0.565 -0.102,1.14 -0.311,1.756 -0.045,0.132 -0.142,0.239 -0.269,0.295 -0.126,0.057 -0.272,0.058 -0.4,0.004 -0.236,-0.101 -0.5,-0.019 -0.624,0.194 -0.124,0.214 -0.063,0.482 0.145,0.638 0.111,0.083 0.183,0.21 0.197,0.349 0.014,0.138 -0.03,0.276 -0.122,0.381 -0.816,0.928 -1.867,1.542 -3.039,1.774 -0.033,0.007 -0.065,0.01 -0.098,0.01 z m -0.98,-1.902 c 0.567,0 1.064,0.321 1.314,0.802 0.647,-0.2 1.241,-0.549 1.748,-1.029 C 21.26,18.866 21.233,18.281 21.511,17.8 v 0 c 0.279,-0.482 0.78,-0.763 1.336,-0.735 0.089,-0.353 0.133,-0.688 0.133,-1.015 0,-0.327 -0.044,-0.662 -0.133,-1.015 -0.556,0.008 -1.058,-0.252 -1.336,-0.735 -0.278,-0.482 -0.251,-1.067 0.031,-1.522 -0.507,-0.48 -1.1,-0.83 -1.748,-1.029 -0.25,0.481 -0.747,0.802 -1.314,0.802 -0.567,0 -1.064,-0.321 -1.314,-0.802 -0.647,0.2 -1.241,0.549 -1.748,1.029 0.282,0.456 0.309,1.041 0.031,1.522 -0.279,0.482 -0.797,0.742 -1.336,0.735 -0.089,0.353 -0.133,0.688 -0.133,1.015 0,0.327 0.044,0.662 0.133,1.015 0.541,-0.027 1.057,0.252 1.336,0.735 0.278,0.482 0.251,1.067 -0.031,1.522 0.507,0.48 1.1,0.83 1.748,1.029 0.25,-0.481 0.747,-0.802 1.314,-0.802 z"
                   id="path2"
                   inkscape:connector-curvature="0"
                   style="fill:#ffffff" /></g></g></g><g
             id="g12"
             style="fill:#ffffff"><path
               d="m 18.48,18.549 c -1.378,0 -2.5,-1.122 -2.5,-2.5 0,-1.378 1.122,-2.5 2.5,-2.5 1.378,0 2.5,1.122 2.5,2.5 0,1.378 -1.122,2.5 -2.5,2.5 z m 0,-4 c -0.827,0 -1.5,0.673 -1.5,1.5 0,0.827 0.673,1.5 1.5,1.5 0.827,0 1.5,-0.673 1.5,-1.5 0,-0.827 -0.673,-1.5 -1.5,-1.5 z"
               id="path10"
               inkscape:connector-curvature="0"
               style="fill:#ffffff" /></g></g></g></g></g><g
     id="g40" /><g
     id="g42" /><g
     id="g44" /><g
     id="g46" /><g
     id="g48" /><g
     id="g50" /><g
     id="g52" /><g
     id="g54" /><g
     id="g56" /><g
     id="g58" /><g
     id="g60" /><g
     id="g62" /><g
     id="g64" /><g
     id="g66" /><g
     id="g68" /></svg>