<svg xmlns="http://www.w3.org/2000/svg" viewBox="0 0 24 24">
  <path d="M22 1.5A1.5 1.5 0 0 0 19.996.087L7.997 4.374A1.5 1.5 0 0 0 7 5.786v13.563c-.774-.484-1.912-.642-3.111-.347-1.127.276-2.084.917-2.562 1.712-.307.511-.4 1.051-.271 1.563.271 1.069 1.432 1.727 2.855 1.727.385 0 .789-.049 1.199-.149 1.126-.275 2.083-.915 2.562-1.71a2.15 2.15 0 0 0 .322-1.111c.001-.011.006-.018.006-.028V9.852l13-4.643V16.35c-.775-.484-1.912-.641-3.111-.348-1.127.276-2.084.917-2.562 1.712-.307.511-.4 1.051-.271 1.563.271 1.069 1.432 1.727 2.855 1.727.385 0 .789-.049 1.199-.149 1.126-.275 2.083-.915 2.562-1.71.283-.471.375-.967.288-1.443a.498.498 0 0 0 .04-.196V1.5z"/>
</svg>
