<svg xmlns="http://www.w3.org/2000/svg" viewBox="0 0 30 30">
  <path d="M2.966 12.382l7.281-1.438 4.854-7.19 4.045 6.83 7.64 2.697-5.573 5.753 1.259 8.09-7.73-3.506L8 26.405l.54-7.64z" fill="#fd5"/>
  <path d="M29.471 11.49a.5.5 0 0 0-.403-.331L19.783 9.87 15.451.773c-.166-.349-.736-.349-.902 0L10.217 9.87.932 11.159a.496.496 0 0 0-.403.331.497.497 0 0 0 .11.51l6.822 7.147L5.6 28.894a.5.5 0 0 0 .723.537L15 24.886l8.677 4.545a.503.503 0 0 0 .53-.042.5.5 0 0 0 .193-.495l-1.861-9.747L29.361 12a.501.501 0 0 0 .11-.51zm-5.557 2.444l-4.139 4.336 1.082 5.667a.5.5 0 0 1-.446.727h-.02a.503.503 0 0 1-.232-.057l-5.16-2.703-5.16 2.703a.5.5 0 0 1-.723-.537l1.107-5.8-4.139-4.336a.5.5 0 1 1 .293-.841l5.513-.766 2.658-5.581a.5.5 0 0 1 .902 0l2.657 5.581 5.514.766a.496.496 0 0 1 .403.331.496.496 0 0 1-.11.51z" fill="#a80"/>
</svg>
