<?xml version="1.0" encoding="UTF-8" standalone="no"?>
<!-- Generator: Adobe Illustrator 19.0.0, SVG Export Plug-In . SVG Version: 6.00 Build 0)  -->

<svg
   xmlns:dc="http://purl.org/dc/elements/1.1/"
   xmlns:cc="http://creativecommons.org/ns#"
   xmlns:rdf="http://www.w3.org/1999/02/22-rdf-syntax-ns#"
   xmlns:svg="http://www.w3.org/2000/svg"
   xmlns="http://www.w3.org/2000/svg"
   xmlns:sodipodi="http://sodipodi.sourceforge.net/DTD/sodipodi-0.dtd"
   xmlns:inkscape="http://www.inkscape.org/namespaces/inkscape"
   version="1.1"
   id="Layer_1"
   x="0px"
   y="0px"
   viewBox="0 0 30 30"
   style="enable-background:new 0 0 30 30;"
   xml:space="preserve"
   sodipodi:docname="icon-lock-white.svg"
   inkscape:version="0.92.2 5c3e80d, 2017-08-06"><metadata
     id="metadata9"><rdf:RDF><cc:Work
         rdf:about=""><dc:format>image/svg+xml</dc:format><dc:type
           rdf:resource="http://purl.org/dc/dcmitype/StillImage" /><dc:title></dc:title></cc:Work></rdf:RDF></metadata><defs
     id="defs7" /><sodipodi:namedview
     pagecolor="#ffffff"
     bordercolor="#666666"
     borderopacity="1"
     objecttolerance="10"
     gridtolerance="10"
     guidetolerance="10"
     inkscape:pageopacity="0"
     inkscape:pageshadow="2"
     inkscape:window-width="640"
     inkscape:window-height="480"
     id="namedview5"
     showgrid="false"
     inkscape:zoom="7.8666667"
     inkscape:cx="-7.8813559"
     inkscape:cy="15"
     inkscape:current-layer="Layer_1" /><path
     d="M23.5,14.1V8.5C23.5,3.8,19.7,0,15,0S6.5,3.8,6.5,8.5v5.6c-1.1,0.2-2,1.2-2,2.4v11C4.5,28.9,5.6,30,7,30h16  c1.4,0,2.5-1.1,2.5-2.5v-11C25.5,15.3,24.6,14.3,23.5,14.1z M10.5,8.5C10.5,6,12.5,4,15,4s4.5,2,4.5,4.5V14h-9V8.5z M17.5,24.3  c0.1,0.2,0,0.3-0.1,0.5C17.3,24.9,17.2,25,17,25h-4c-0.2,0-0.3-0.1-0.4-0.2c-0.1-0.1-0.1-0.3-0.1-0.5l1-2.8c-0.7-0.5-1.1-1.2-1.1-2  c0-1.4,1.1-2.5,2.5-2.5s2.5,1.1,2.5,2.5c0,0.8-0.4,1.6-1.1,2L17.5,24.3z"
     id="path2"
     style="fill:#ffffff" /></svg>