<svg xmlns="http://www.w3.org/2000/svg" viewBox="0 0 24 24">
  <g fill="#fff">
    <path d="M14.043 23.262a1.045 1.045 0 0 1-1.038-.936c-.054-.538-.488-.945-1.005-.945-.517 0-.95.405-1.005.945a1.04 1.04 0 0 1-.419.731 1.048 1.048 0 0 1-.824.184c-2.443-.486-4.635-1.766-6.336-3.699a1.043 1.043 0 0 1 .157-1.522c.431-.325.558-.884.302-1.33-.257-.444-.805-.613-1.301-.405a1.045 1.045 0 0 1-1.395-.623c-.436-1.284-.648-2.483-.648-3.661s.212-2.377.648-3.661c.094-.276.296-.499.56-.616.264-.12.566-.123.835-.008.494.213 1.042.042 1.3-.404.26-.447.132-1.005-.301-1.33a1.04 1.04 0 0 1-.157-1.523C5.117 2.525 7.31 1.244 9.752.761a1.047 1.047 0 0 1 1.243.915c.054.538.488.944 1.005.944.517 0 .95-.404 1.005-.944a1.04 1.04 0 0 1 .419-.732 1.02 1.02 0 0 1 .824-.183c2.443.485 4.635 1.766 6.336 3.698a1.043 1.043 0 0 1-.157 1.522c-.431.326-.558.884-.302 1.33.259.447.811.616 1.301.405a1.045 1.045 0 0 1 1.395.624c.436 1.284.648 2.483.648 3.66 0 1.179-.212 2.378-.648 3.662a1.045 1.045 0 0 1-1.395.623c-.492-.21-1.042-.04-1.3.405-.26.446-.132 1.005.301 1.33a1.04 1.04 0 0 1 .157 1.522c-1.701 1.935-3.893 3.215-6.336 3.699a.971.971 0 0 1-.205.02zM12 19.296c1.182 0 2.218.67 2.74 1.672a9.277 9.277 0 0 0 3.644-2.145 3.093 3.093 0 0 1-.064-3.174c.581-1.004 1.626-1.59 2.785-1.532a8.608 8.608 0 0 0 .277-2.116c0-.682-.091-1.38-.277-2.116-1.16.016-2.206-.526-2.785-1.533a3.093 3.093 0 0 1 .064-3.173 9.238 9.238 0 0 0-3.644-2.146A3.086 3.086 0 0 1 12 4.705a3.086 3.086 0 0 1-2.74-1.672A9.277 9.277 0 0 0 5.616 5.18c.588.95.644 2.17.064 3.173C5.1 9.357 4.02 9.9 2.895 9.885A8.608 8.608 0 0 0 2.618 12c0 .682.091 1.38.277 2.116a3.043 3.043 0 0 1 2.785 1.532 3.093 3.093 0 0 1-.064 3.174 9.238 9.238 0 0 0 3.644 2.145A3.086 3.086 0 0 1 12 19.296z"/>
    <path d="M12 17.211A5.22 5.22 0 0 1 6.788 12 5.22 5.22 0 0 1 12 6.786 5.22 5.22 0 0 1 17.212 12 5.22 5.22 0 0 1 12 17.21zm0-8.34A3.131 3.131 0 0 0 8.873 12 3.131 3.131 0 0 0 12 15.126 3.131 3.131 0 0 0 15.127 12 3.131 3.131 0 0 0 12 8.87z"/>
  </g>
</svg>
