<svg xmlns="http://www.w3.org/2000/svg" viewBox="0 0 24 24">
  <path d="M6.5 23a5.293 5.293 0 0 1-3.768-1.561L1.56 20.267C.554 19.261 0 17.923 0 16.5s.554-2.761 1.561-3.768l9.586-9.586a.5.5 0 0 1 .707.707l-9.586 9.586C1.45 14.257 1 15.344 1 16.5s.45 2.243 1.268 3.061l1.172 1.172C4.257 21.55 5.344 22 6.5 22s2.243-.45 3.061-1.268L22.086 8.207C22.675 7.618 23 6.833 23 6s-.325-1.618-.914-2.207l-.879-.879c-1.179-1.179-3.235-1.179-4.414 0L5.561 14.146c-.357.357-.561.85-.561 1.354s.204.997.561 1.354l.586.586c.713.713 1.994.713 2.707 0l8.293-8.293a.5.5 0 0 1 .707.707l-8.293 8.293c-1.085 1.085-3.036 1.085-4.121 0l-.586-.586C4.311 17.018 4 16.267 4 15.5s.311-1.518.854-2.061L16.086 2.207C16.864 1.429 17.899 1 19 1s2.136.429 2.914 1.207l.879.879C23.571 3.864 24 4.899 24 6s-.429 2.136-1.207 2.914L10.268 21.439A5.293 5.293 0 0 1 6.5 23z"/>
</svg>
