<svg xmlns="http://www.w3.org/2000/svg" viewBox="0 0 30 30">
  <path d="M1 27.5C1 28.879 2.122 30 3.5 30h24c1.379 0 2.5-1.121 2.5-2.5V17H1v10.5zM19.107 11H13.92l-2.522 5h5.186zM5.092 16h5.186l2.523-5H7.614zm20.321-5h-5.186l-2.523 5h5.186zM1 16h2.972l2.73-5.412-4.673-4.673-.667.158c-.462.109-.853.393-1.101.8s-.323.885-.208 1.351L1 11.951V16zm28.5-5h-2.967l-2.523 5H30v-4.5a.5.5 0 0 0-.5-.5zm-9.942-2.695l-5.289-5.293-4.98 1.181 5.255 5.251zm6.164-1.399l-5.34-5.344-4.97 1.179 5.298 5.303zM13.391 9.705L8.146 4.464l-4.974 1.18 5.201 5.201zm16.197-3.677a.498.498 0 0 0 .373-.616l-1.077-4.068a1.768 1.768 0 0 0-2.102-1.3l-5.258 1.247 5.35 5.353 2.714-.616z" fill="#fff"/>
</svg>
